<mxfile host="app.diagrams.net" agent="Mozilla/5.0 (X11; Ubuntu; Linux x86_64; rv:132.0) Gecko/20100101 Firefox/132.0" version="24.8.6">
  <diagram name="Page-1" id="j5jk9viE3ZhV9j_c9NHX">
    <mxGraphModel dx="1434" dy="785" grid="1" gridSize="10" guides="1" tooltips="1" connect="1" arrows="1" fold="1" page="1" pageScale="1" pageWidth="850" pageHeight="1100" math="0" shadow="0">
      <root>
        <mxCell id="0" />
        <mxCell id="1" parent="0" />
        <mxCell id="FtjuvxLg4XkR8zvx-HtB-15" value="" style="rounded=1;whiteSpace=wrap;html=1;fillColor=#fff2cc;strokeColor=#d6b656;" vertex="1" parent="1">
          <mxGeometry x="120" y="520" width="600" height="80" as="geometry" />
        </mxCell>
        <mxCell id="FtjuvxLg4XkR8zvx-HtB-1" value="" style="rounded=1;whiteSpace=wrap;html=1;fillColor=#fff2cc;strokeColor=#d6b656;" vertex="1" parent="1">
          <mxGeometry x="120" y="240" width="600" height="80" as="geometry" />
        </mxCell>
        <mxCell id="FtjuvxLg4XkR8zvx-HtB-10" value="" style="edgeStyle=orthogonalEdgeStyle;rounded=0;orthogonalLoop=1;jettySize=auto;html=1;" edge="1" parent="1" source="FtjuvxLg4XkR8zvx-HtB-2" target="FtjuvxLg4XkR8zvx-HtB-9">
          <mxGeometry relative="1" as="geometry" />
        </mxCell>
        <mxCell id="FtjuvxLg4XkR8zvx-HtB-2" value="block 1" style="rounded=0;whiteSpace=wrap;html=1;fillColor=#dae8fc;strokeColor=#6c8ebf;" vertex="1" parent="1">
          <mxGeometry x="140" y="250" width="180" height="60" as="geometry" />
        </mxCell>
        <mxCell id="FtjuvxLg4XkR8zvx-HtB-13" value="" style="edgeStyle=orthogonalEdgeStyle;rounded=0;orthogonalLoop=1;jettySize=auto;html=1;" edge="1" parent="1" source="FtjuvxLg4XkR8zvx-HtB-7" target="FtjuvxLg4XkR8zvx-HtB-11">
          <mxGeometry relative="1" as="geometry" />
        </mxCell>
        <mxCell id="FtjuvxLg4XkR8zvx-HtB-7" value="block 2" style="rounded=0;whiteSpace=wrap;html=1;fillColor=#dae8fc;strokeColor=#6c8ebf;" vertex="1" parent="1">
          <mxGeometry x="320" y="250" width="180" height="60" as="geometry" />
        </mxCell>
        <mxCell id="FtjuvxLg4XkR8zvx-HtB-14" value="" style="edgeStyle=orthogonalEdgeStyle;rounded=0;orthogonalLoop=1;jettySize=auto;html=1;" edge="1" parent="1" source="FtjuvxLg4XkR8zvx-HtB-8" target="FtjuvxLg4XkR8zvx-HtB-12">
          <mxGeometry relative="1" as="geometry" />
        </mxCell>
        <mxCell id="FtjuvxLg4XkR8zvx-HtB-8" value="block n" style="rounded=0;whiteSpace=wrap;html=1;fillColor=#dae8fc;strokeColor=#6c8ebf;" vertex="1" parent="1">
          <mxGeometry x="500" y="250" width="180" height="60" as="geometry" />
        </mxCell>
        <mxCell id="FtjuvxLg4XkR8zvx-HtB-19" value="" style="edgeStyle=orthogonalEdgeStyle;rounded=0;orthogonalLoop=1;jettySize=auto;html=1;" edge="1" parent="1" source="FtjuvxLg4XkR8zvx-HtB-9" target="FtjuvxLg4XkR8zvx-HtB-16">
          <mxGeometry relative="1" as="geometry" />
        </mxCell>
        <mxCell id="FtjuvxLg4XkR8zvx-HtB-9" value="tweak:&lt;br&gt;(t, 1)" style="rounded=1;whiteSpace=wrap;html=1;fillColor=#d5e8d4;strokeColor=#82b366;" vertex="1" parent="1">
          <mxGeometry x="170" y="380" width="120" height="60" as="geometry" />
        </mxCell>
        <mxCell id="FtjuvxLg4XkR8zvx-HtB-20" value="" style="edgeStyle=orthogonalEdgeStyle;rounded=0;orthogonalLoop=1;jettySize=auto;html=1;" edge="1" parent="1" source="FtjuvxLg4XkR8zvx-HtB-11" target="FtjuvxLg4XkR8zvx-HtB-17">
          <mxGeometry relative="1" as="geometry" />
        </mxCell>
        <mxCell id="FtjuvxLg4XkR8zvx-HtB-11" value="tweak:&lt;br&gt;(t, 2)" style="rounded=1;whiteSpace=wrap;html=1;fillColor=#d5e8d4;strokeColor=#82b366;" vertex="1" parent="1">
          <mxGeometry x="350" y="380" width="120" height="60" as="geometry" />
        </mxCell>
        <mxCell id="FtjuvxLg4XkR8zvx-HtB-21" value="" style="edgeStyle=orthogonalEdgeStyle;rounded=0;orthogonalLoop=1;jettySize=auto;html=1;" edge="1" parent="1" source="FtjuvxLg4XkR8zvx-HtB-12" target="FtjuvxLg4XkR8zvx-HtB-18">
          <mxGeometry relative="1" as="geometry" />
        </mxCell>
        <mxCell id="FtjuvxLg4XkR8zvx-HtB-12" value="tweak:&lt;br&gt;(t, n)" style="rounded=1;whiteSpace=wrap;html=1;fillColor=#d5e8d4;strokeColor=#82b366;" vertex="1" parent="1">
          <mxGeometry x="530" y="380" width="120" height="60" as="geometry" />
        </mxCell>
        <mxCell id="FtjuvxLg4XkR8zvx-HtB-16" value="" style="rounded=0;whiteSpace=wrap;html=1;fillColor=#f5f5f5;fontColor=#333333;strokeColor=#666666;" vertex="1" parent="1">
          <mxGeometry x="140" y="530" width="180" height="60" as="geometry" />
        </mxCell>
        <mxCell id="FtjuvxLg4XkR8zvx-HtB-17" value="" style="rounded=0;whiteSpace=wrap;html=1;fillColor=#f5f5f5;fontColor=#333333;strokeColor=#666666;" vertex="1" parent="1">
          <mxGeometry x="320" y="530" width="180" height="60" as="geometry" />
        </mxCell>
        <mxCell id="FtjuvxLg4XkR8zvx-HtB-18" value="" style="rounded=0;whiteSpace=wrap;html=1;fillColor=#f5f5f5;fontColor=#333333;strokeColor=#666666;" vertex="1" parent="1">
          <mxGeometry x="500" y="530" width="180" height="60" as="geometry" />
        </mxCell>
        <mxCell id="FtjuvxLg4XkR8zvx-HtB-22" value="sector #t" style="text;html=1;align=center;verticalAlign=middle;whiteSpace=wrap;rounded=0;" vertex="1" parent="1">
          <mxGeometry x="30" y="265" width="60" height="30" as="geometry" />
        </mxCell>
      </root>
    </mxGraphModel>
  </diagram>
</mxfile>
